<?xml version="1.0" encoding="utf-8"?>
<!-- Generator: Adobe Illustrator 22.1.0, SVG Export Plug-In . SVG Version: 6.00 Build 0)  -->
<svg version="1.1" id="Layer_1" xmlns="http://www.w3.org/2000/svg" xmlns:xlink="http://www.w3.org/1999/xlink" x="0px" y="0px"
	 viewBox="0 0 50 50" style="enable-background:new 0 0 50 50;" xml:space="preserve">
<style type="text/css">
	.st0{fill:#132238;}
	.st1{fill:#FFFFFF;}
</style>
<circle class="st0" cx="25" cy="25" r="25"/>
<path class="st1" d="M32.9,42.9H17.1c-5.5,0-10-4.5-10-10V17.1c0-5.5,4.5-10,10-10h15.9c5.5,0,10,4.5,10,10v15.9
	C42.9,38.4,38.4,42.9,32.9,42.9z"/>
<g>
	<path d="M37.9,30.5c0,0.4-0.1,0.6-0.4,0.8c-2.8,1.6-5.6,3.2-8.3,4.8c-0.3,0.2-0.6,0.2-0.9,0c-2.2-1.2-4.3-2.5-6.5-3.7
		c-0.3-0.2-0.4-0.4-0.4-0.7c0-1.2,0-2.4,0-3.6c0-0.2,0.1-0.2,0.2-0.3c1.7-1,3.4-2,5.1-2.9c0.1-0.1,0.2-0.2,0.2-0.3
		c0-1.2,0-2.3,0-3.5c0-0.6-0.4-0.9-0.9-0.8c-0.1,0-0.2,0.1-0.3,0.1c-1.3,0.7-2.6,1.5-3.8,2.2c-0.3,0.2-0.7,0.2-1,0
		c-1.3-0.8-2.6-1.5-3.9-2.2c-0.2-0.1-0.4-0.2-0.5-0.1c-0.4,0-0.6,0.3-0.6,0.7c0,0.4,0,0.8,0,1.2c0,1.8,0,3.6,0,5.4
		c0,0.7-0.6,1.1-1.2,0.7c-0.7-0.4-1.4-0.8-2.1-1.2c-0.3-0.2-0.4-0.4-0.4-0.7c0-1.9,0-3.9,0-5.8h0c0-1.9,0-3.9,0-5.8
		c0-0.5,0.2-0.8,0.6-0.8c0.2,0,0.4,0,0.6,0.1c1.9,1.1,3.7,2.1,5.6,3.2c0.6,0.4,1.3,0.7,1.9,1.1c0.4,0.2,0.7,0.2,1,0
		c2.5-1.4,5-2.9,7.5-4.3c0.1-0.1,0.2-0.1,0.3-0.1c0.4-0.1,0.9,0.1,0.9,0.6c0,0.1,0,0.2,0,0.3c0,3.8,0,7.6,0,11.4
		c0,0.4-0.2,0.7-0.6,1c-1.3,0.7-2.5,1.4-3.8,2.2c-0.3,0.2-0.5,0.4-0.5,0.7c0,0.3,0.2,0.5,0.5,0.7c0.7,0.4,1.4,0.8,2.1,1.2
		c0.3,0.2,0.6,0.2,0.9,0c1.5-0.9,3.1-1.8,4.7-2.7c0.3-0.2,0.4-0.4,0.4-0.8c0-1.3,0-2.6,0-3.9c0-0.4,0.1-0.7,0.5-0.9
		c0.7-0.4,1.4-0.8,2-1.2c0.6-0.3,1.2,0,1.2,0.7C37.9,25.6,37.9,28,37.9,30.5z"/>
	<path d="M37.9,17.1c0,0.3-0.1,0.5-0.4,0.7c-0.7,0.4-1.4,0.8-2.1,1.2c-0.6,0.3-1.1,0-1.1-0.6c0-0.4,0-0.8,0-1.3c0-0.4,0-0.8,0-1.2
		c0-0.3,0.1-0.6,0.4-0.7c0.7-0.4,1.4-0.8,2-1.2c0.6-0.3,1.1,0,1.2,0.6C37.9,15.5,37.9,16.3,37.9,17.1z"/>
</g>
</svg>
