<?xml version="1.0" encoding="utf-8"?>
<!-- Generator: Adobe Illustrator 22.1.0, SVG Export Plug-In . SVG Version: 6.00 Build 0)  -->
<svg version="1.1" id="Layer_1" xmlns="http://www.w3.org/2000/svg" xmlns:xlink="http://www.w3.org/1999/xlink" x="0px" y="0px"
	 viewBox="0 0 50 50" style="enable-background:new 0 0 50 50;" xml:space="preserve">
<style type="text/css">
	.st0{fill:#132238;}
	.st1{fill:#FFFFFF;}
</style>
<circle class="st0" cx="25" cy="25" r="25"/>
<path class="st1" d="M32.9,42.9H17.1c-5.5,0-10-4.5-10-10V17.1c0-5.5,4.5-10,10-10h15.9c5.5,0,10,4.5,10,10v15.9
	C42.9,38.4,38.4,42.9,32.9,42.9z"/>
<g>
	<path d="M37,23.6c-0.3-0.5-0.7-0.9-1.2-1.2c-1-0.7-2.1-1.1-3.2-1.5c-0.1,0-0.2-0.1-0.3-0.1c0.2-0.9,0.4-1.7,0.4-2.6
		c0-0.9,0-1.8-0.3-2.6c-0.3-0.9-0.9-1.5-1.8-1.7c-0.7-0.2-1.4,0-2.1,0.2c-1,0.4-1.9,1-2.7,1.7c-0.3,0.2-0.6,0.5-0.8,0.7
		c-0.4-0.4-0.8-0.7-1.2-1c-0.8-0.6-1.6-1.2-2.6-1.5c-0.6-0.2-1.3-0.3-1.9-0.1c-0.9,0.3-1.4,1-1.7,1.9c-0.3,1.1-0.3,2.3-0.1,3.4
		c0.1,0.5,0.2,1,0.3,1.5c0,0-0.1,0-0.1,0c-0.7,0.3-1.5,0.5-2.2,0.9c-0.8,0.4-1.6,0.9-2.2,1.6c-0.5,0.7-0.8,1.4-0.6,2.3
		c0.2,0.7,0.6,1.2,1.1,1.7c0.8,0.7,1.7,1.1,2.6,1.5c0.5,0.2,1,0.3,1.4,0.5c-0.1,0.9-0.3,1.7-0.3,2.5c-0.1,0.9,0,1.8,0.3,2.7
		c0.3,0.9,0.9,1.5,1.8,1.7c0.6,0.2,1.3,0.1,1.9-0.1c1-0.3,1.9-0.9,2.7-1.6c0.4-0.3,0.7-0.6,1-0.9c0.4,0.4,0.8,0.7,1.2,1
		c0.8,0.6,1.6,1.2,2.6,1.5c0.6,0.2,1.3,0.3,1.9,0.1c0.9-0.3,1.4-1,1.7-1.9c0.3-1.1,0.3-2.3,0.1-3.4c-0.1-0.5-0.2-1-0.3-1.5
		c0,0,0.1,0,0.1,0c0.8-0.2,1.6-0.5,2.4-0.9c0.8-0.4,1.5-0.9,2-1.5C37.7,25.7,37.7,24.6,37,23.6z M26.6,16.7c0.7-0.6,1.5-1.2,2.3-1.5
		c0.4-0.2,0.8-0.3,1.3-0.2c0.5,0.1,0.9,0.4,1.1,0.9c0.1,0.4,0.2,0.8,0.3,1.2c0.1,1.1-0.1,2.2-0.4,3.3c-0.5-0.1-1-0.2-1.5-0.3
		c-0.5-0.1-1.1-0.1-1.6-0.2c-0.1,0-0.1,0-0.2-0.1c-0.7-0.8-1.3-1.7-2-2.5C26.1,17.2,26.3,16.9,26.6,16.7z M19.9,26.4
		c0.5,0.8,0.9,1.6,1.3,2.3c-0.7-0.1-1.4-0.2-2.1-0.4C19.4,27.7,19.6,27.1,19.9,26.4z M19.2,21.6c0.7-0.1,1.4-0.2,2.1-0.4
		c-0.5,0.8-0.9,1.5-1.3,2.3C19.6,22.9,19.4,22.3,19.2,21.6z M20.6,25.1c0-0.1-0.1-0.2,0-0.3c0.6-1.3,1.3-2.5,2.1-3.6
		c0.1-0.1,0.2-0.1,0.3-0.2c1.4-0.1,2.8-0.1,4.1,0c0.1,0,0.2,0,0.3,0.2c0.8,1.2,1.5,2.4,2.1,3.6c0,0.1,0,0.2,0,0.2
		c-0.6,1.3-1.3,2.5-2.1,3.6c-0.1,0.1-0.2,0.1-0.3,0.1c-0.7,0-1.4,0.1-2,0.1c-0.7,0-1.4-0.1-2-0.1c-0.1,0-0.2-0.1-0.3-0.2
		C21.9,27.6,21.2,26.4,20.6,25.1z M30.1,26.4c0.2,0.7,0.5,1.3,0.7,2c-0.7,0.1-1.4,0.2-2.1,0.4C29.2,27.9,29.7,27.2,30.1,26.4z
		 M28.8,21.3c0.7,0.1,1.4,0.2,2.1,0.4c-0.3,0.7-0.5,1.3-0.7,2C29.7,22.8,29.2,22.1,28.8,21.3z M26.3,19.9h-2.7
		c0.4-0.5,0.9-1.1,1.3-1.6C25.5,18.8,25.9,19.3,26.3,19.9z M18.7,16c0.3-0.8,1-1.2,1.8-1c0.7,0.1,1.2,0.5,1.8,0.8
		c0.7,0.4,1.3,1,1.9,1.5c-0.3,0.4-0.7,0.8-1,1.2c-0.3,0.4-0.6,0.8-0.9,1.2c-0.1,0.2-0.2,0.3-0.5,0.3c-1,0.1-2,0.3-3,0.4
		c-0.1-0.4-0.2-0.8-0.2-1.2c-0.1-0.6-0.1-1.3-0.1-1.9C18.4,16.9,18.5,16.4,18.7,16z M18,28C18,28,18,28,18,28c-0.3,0-0.5,0-0.7-0.1
		c-0.9-0.3-1.8-0.7-2.6-1.3c-0.2-0.2-0.4-0.3-0.6-0.5c-0.6-0.7-0.6-1.5,0-2.2c0.5-0.5,1-0.9,1.6-1.1c0.7-0.3,1.4-0.5,2.1-0.8
		c0,0,0.1,0,0.1,0c0.3,0.9,0.7,1.7,1,2.6c0.1,0.3,0.2,0.6,0,0.9C18.7,26.3,18.4,27.1,18,28z M21.1,34.8c-0.3,0.1-0.6,0.2-0.9,0.2
		c-0.6,0.1-1.1-0.3-1.4-0.9c-0.2-0.4-0.3-0.9-0.3-1.3c0-1.1,0.1-2.2,0.4-3.2c0.4,0.1,0.8,0.2,1.1,0.2c0.7,0.1,1.3,0.2,2,0.3
		c0.1,0,0.1,0,0.2,0.1c0.7,0.8,1.3,1.6,2,2.4c0,0,0,0,0,0.1C23.2,33.5,22.3,34.3,21.1,34.8z M23.7,30.1h2.7
		c-0.4,0.5-0.9,1.1-1.3,1.6C24.5,31.2,24.1,30.7,23.7,30.1z M31.5,33.1c-0.1,0.3-0.1,0.7-0.3,1c-0.3,0.7-0.9,1-1.7,0.8
		c-0.5-0.1-1-0.3-1.5-0.6c-0.8-0.5-1.5-1.1-2.2-1.7c0.4-0.5,0.9-1,1.3-1.5c0.2-0.3,0.5-0.6,0.7-0.9c0-0.1,0.1-0.1,0.2-0.1
		c1-0.2,2.1-0.3,3.1-0.5c0,0,0,0,0.1,0c0.1,0.5,0.2,0.9,0.3,1.4C31.6,31.7,31.6,32.4,31.5,33.1z M35.9,26.1c-0.5,0.5-1,0.9-1.6,1.1
		c-0.7,0.3-1.4,0.6-2.2,0.8c0,0-0.1,0-0.1,0c-0.2-0.5-0.4-1.1-0.6-1.6c-0.2-0.5-0.4-0.9-0.6-1.3c0-0.1,0-0.1,0-0.2
		c0.4-1,0.8-2,1.2-3c0,0,0,0,0,0c1.1,0.3,2.1,0.7,3.1,1.3c0.4,0.2,0.7,0.5,0.9,0.9C36.5,24.8,36.4,25.5,35.9,26.1z"/>
	<path d="M27.2,25c0,1.2-1,2.2-2.2,2.2c-1.2,0-2.2-1-2.2-2.2c0-1.2,1-2.2,2.2-2.2C26.2,22.8,27.2,23.8,27.2,25z"/>
</g>
</svg>
